<svg xmlns="http://www.w3.org/2000/svg" xmlns:svg="http://www.w3.org/2000/svg" xmlns:xlink="http://www.w3.org/1999/xlink" id="svg11300" width="48" height="48" version="1.0"><defs id="defs3"><linearGradient id="linearGradient8542"><stop style="stop-color:#5b676b;stop-opacity:1" id="stop8544" offset="0"/><stop style="stop-color:#141718;stop-opacity:1" id="stop8546" offset="1"/></linearGradient><linearGradient id="linearGradient8534"><stop style="stop-color:black;stop-opacity:1" id="stop8536" offset="0"/><stop style="stop-color:black;stop-opacity:0" id="stop8538" offset="1"/></linearGradient><linearGradient id="linearGradient8524"><stop style="stop-color:white;stop-opacity:1" id="stop8526" offset="0"/><stop style="stop-color:white;stop-opacity:0" id="stop8528" offset="1"/></linearGradient><linearGradient id="linearGradient2446"><stop style="stop-color:white;stop-opacity:1" id="stop2448" offset="0"/><stop style="stop-color:white;stop-opacity:0" id="stop2450" offset="1"/></linearGradient><linearGradient id="linearGradient2452" x1="13.236" x2="7.752" y1="37.752" y2="42.282" gradientTransform="matrix(0.755165,0.395143,-0.395143,0.755165,-25.91245,6.532586)" gradientUnits="userSpaceOnUse" xlink:href="#linearGradient2446"/><linearGradient id="linearGradient6963"><stop style="stop-color:#696969;stop-opacity:1" id="stop6965" offset="0"/><stop style="stop-color:black;stop-opacity:1" id="stop6967" offset="1"/></linearGradient><radialGradient id="radialGradient6969" cx="15.415" cy="35.357" r="7.579" fx="15.415" fy="35.357" gradientTransform="matrix(1.572694,5.424952e-17,1.037922e-12,1.532639,-55.36682,-21.35823)" gradientUnits="userSpaceOnUse" xlink:href="#linearGradient6963"/><linearGradient id="linearGradient6939"><stop style="stop-color:#bdbdbd;stop-opacity:1" id="stop6941" offset="0"/><stop style="stop-color:#e2e2e2;stop-opacity:1" id="stop6947" offset=".333"/><stop style="stop-color:#a3a3a3;stop-opacity:1" id="stop6949" offset=".667"/><stop style="stop-color:#ddd;stop-opacity:1" id="stop6943" offset="1"/></linearGradient><linearGradient id="linearGradient6945" x1="19.395" x2="23.109" y1="30.001" y2="33.439" gradientTransform="translate(-46.40695,-1.802856)" gradientUnits="userSpaceOnUse" xlink:href="#linearGradient6939"/><linearGradient id="linearGradient6951"><stop style="stop-color:#6e3d09;stop-opacity:1" id="stop6953" offset="0"/><stop style="stop-color:#ea8113;stop-opacity:1" id="stop6959" offset=".242"/><stop style="stop-color:#5c3307;stop-opacity:1" id="stop6961" offset=".621"/><stop style="stop-color:#e07c12;stop-opacity:1" id="stop6955" offset="1"/></linearGradient><linearGradient id="linearGradient6957" x1="37.018" x2="27.754" y1="19.24" y2="11.182" gradientTransform="translate(-49.30496,1.877723)" gradientUnits="userSpaceOnUse" xlink:href="#linearGradient6951"/><linearGradient id="linearGradient6500"><stop style="stop-color:#857c63;stop-opacity:1" id="stop6502" offset="0"/><stop style="stop-color:#221f19;stop-opacity:1" id="stop6504" offset="1"/></linearGradient><linearGradient id="linearGradient6492"><stop style="stop-color:black;stop-opacity:1" id="stop6494" offset="0"/><stop style="stop-color:black;stop-opacity:0" id="stop6496" offset="1"/></linearGradient><linearGradient id="linearGradient6482"><stop style="stop-color:black;stop-opacity:1" id="stop6484" offset="0"/><stop style="stop-color:black;stop-opacity:0" id="stop6486" offset="1"/></linearGradient><linearGradient id="linearGradient6468"><stop style="stop-color:white;stop-opacity:1" id="stop6470" offset="0"/><stop style="stop-color:#b9b9b0;stop-opacity:1" id="stop6472" offset="1"/></linearGradient><linearGradient id="linearGradient6452"><stop style="stop-color:white;stop-opacity:1" id="stop6454" offset="0"/><stop style="stop-color:white;stop-opacity:0" id="stop6456" offset="1"/></linearGradient><linearGradient id="linearGradient6458" x1="6.305" x2="5.985" y1="23.362" y2="31.57" gradientUnits="userSpaceOnUse" xlink:href="#linearGradient6452"/><radialGradient id="radialGradient6474" cx="69.473" cy="19.598" r="3.515" fx="69.473" fy="19.598" gradientTransform="matrix(1.318488,1.207574e-15,-1.207574e-15,1.318488,-22.1264,-6.241691)" gradientUnits="userSpaceOnUse" xlink:href="#linearGradient6468"/><radialGradient id="radialGradient6498" cx="23" cy="33.938" r="18.25" fx="23" fy="33.938" gradientTransform="matrix(1,0,0,0.284247,0,24.29088)" gradientUnits="userSpaceOnUse" xlink:href="#linearGradient6492"/><linearGradient id="linearGradient8530" x1="14.969" x2="39.525" y1="19.111" y2="46.986" gradientUnits="userSpaceOnUse" xlink:href="#linearGradient8524"/><radialGradient id="radialGradient8548" cx="6.024" cy="25.271" r="4.831" fx="6.024" fy="25.271" gradientTransform="matrix(0.916159,9.318684e-2,-0.108765,1.069309,3.253668,-3.029272)" gradientUnits="userSpaceOnUse" xlink:href="#linearGradient8542"/><linearGradient id="linearGradient4330" x1="26.163" x2="24.329" y1="30.543" y2="30.985" gradientUnits="userSpaceOnUse" xlink:href="#linearGradient8534"/><linearGradient id="linearGradient4351" x1="32.35" x2="21.213" y1="28.083" y2="30.293" gradientTransform="translate(-3.836549,0.345971)" gradientUnits="userSpaceOnUse" xlink:href="#linearGradient6482"/><radialGradient id="radialGradient4354" cx="18.558" cy="22.3" r="19.229" fx="18.558" fy="22.3" gradientTransform="matrix(1.77275,-1.847562e-16,1.351402e-16,1.29668,-16.3404,-6.615959)" gradientUnits="userSpaceOnUse" xlink:href="#linearGradient6500"/><radialGradient id="radialGradient4363" cx="69.473" cy="19.598" r="3.515" fx="69.473" fy="19.598" gradientTransform="matrix(1.318488,1.207574e-15,-1.207574e-15,1.318488,-22.1264,-6.241691)" gradientUnits="userSpaceOnUse" xlink:href="#linearGradient6468"/></defs><g id="layer1"><path style="color:#000;fill:url(#radialGradient6498);fill-opacity:1;fill-rule:evenodd;stroke:none;stroke-width:.9999997;stroke-linecap:butt;stroke-linejoin:miter;marker:none;marker-start:none;marker-mid:none;marker-end:none;stroke-miterlimit:10;stroke-dasharray:none;stroke-dashoffset:0;stroke-opacity:1;visibility:visible;display:inline;overflow:visible" id="path6490" d="M 41.25 33.9375 A 18.25 5.1875 0 1 1 4.75,33.9375 A 18.25 5.1875 0 1 1 41.25 33.9375 z" transform="matrix(1,0,0,1.53012,0.125,-19.99096)"/><path style="color:#000;fill:url(#radialGradient4354);fill-opacity:1;fill-rule:evenodd;stroke:#2e3436;stroke-width:.9999997;stroke-linecap:butt;stroke-linejoin:miter;marker:none;marker-start:none;marker-mid:none;marker-end:none;stroke-miterlimit:10;stroke-dasharray:none;stroke-dashoffset:0;stroke-opacity:1;visibility:visible;display:inline;overflow:visible" id="path4323" d="M 10.374369,12.467884 C 10.374369,12.467884 13.248878,18.395518 19.973611,18.228291 C 34.066126,17.874738 36.53732,10.523341 36.890873,9.4626804 C 37.244427,8.4020202 37.785407,8.5626825 37.91048,9.542947 C 42.506674,51.262247 6.0135488,33.362123 4.7175144,26.256467 C 11.965359,24.135147 10.197592,20.069282 10.197592,20.069282 L 10.374369,12.467884 z"/><path style="color:#000;fill:url(#linearGradient4351);fill-opacity:1;fill-rule:evenodd;stroke:none;stroke-width:.9999997;stroke-linecap:butt;stroke-linejoin:miter;marker:none;marker-start:none;marker-mid:none;marker-end:none;stroke-miterlimit:10;stroke-dasharray:none;stroke-dashoffset:0;stroke-opacity:1;visibility:visible;display:inline;overflow:visible" id="path6480" d="M 15.73779,30.066049 C 22.47669,31.413886 25.908481,30.164142 27.916965,28.613273 C 27.386635,27.928263 26.480655,27.176962 26.480655,27.176962 C 26.480655,27.176962 28.833972,27.830904 29.662635,28.900535 C 30.488925,29.967103 29.969443,30.624242 29.753196,31.988905 C 29.271785,30.790306 28.373215,30.340813 28.251562,29.864573 C 26.445294,32.3615 21.94512,32.257773 15.73779,30.066049 z"/><path style="opacity:.18539327;color:#000;fill:none;fill-opacity:1;fill-rule:evenodd;stroke:url(#linearGradient8530);stroke-width:.9999997;stroke-linecap:butt;stroke-linejoin:miter;marker:none;marker-start:none;marker-mid:none;marker-end:none;stroke-miterlimit:10;stroke-dasharray:none;stroke-dashoffset:0;stroke-opacity:1;visibility:visible;display:inline;overflow:visible" id="path8520" d="M 36.96875,11.84375 C 36.406772,12.770645 35.562258,13.876916 34.28125,14.9375 C 31.649332,17.116542 27.230687,19.099847 20,19.28125 C 15.775627,19.386299 13.047259,17.347101 11.375,15.53125 L 11.25,20 C 11.386107,20.418802 11.665455,21.390498 11.1875,22.71875 C 10.673186,24.148046 9.032986,25.610113 6.21875,26.71875 C 6.4690804,27.240783 6.7142345,27.76237 7.46875,28.5 C 8.4967003,29.504945 9.9257833,30.588049 11.625,31.5625 C 15.023433,33.511402 19.426583,35.055712 23.53125,35.125 C 27.635917,35.194288 31.388376,33.89045 33.96875,30.125 C 36.347494,26.653782 37.651223,20.777057 36.96875,11.84375 z"/><path style="color:#000;fill:url(#radialGradient4363);fill-opacity:1;fill-rule:evenodd;stroke:#888a85;stroke-width:.78260845;stroke-linecap:butt;stroke-linejoin:miter;marker:none;marker-start:none;marker-mid:none;marker-end:none;stroke-miterlimit:10;stroke-dasharray:none;stroke-dashoffset:0;stroke-opacity:1;visibility:visible;display:inline;overflow:visible" id="path4357" d="M 72.655224 21.837049 A 3.1819806 3.1819806 0 1 1 66.291263,21.837049 A 3.1819806 3.1819806 0 1 1 72.655224 21.837049 z" transform="matrix(1.277778,0,0,1.277778,-75.12661,-6.507784)"/><path style="color:#000;fill:url(#radialGradient8548);fill-opacity:1;fill-rule:evenodd;stroke:#000;stroke-width:.9999997;stroke-linecap:butt;stroke-linejoin:miter;marker:none;marker-start:none;marker-mid:none;marker-end:none;stroke-miterlimit:10;stroke-dasharray:none;stroke-dashoffset:0;stroke-opacity:1;visibility:visible;display:inline;overflow:visible" id="path5198" d="M 10.429825 27.228739 A 4.3310289 6.0987959 0 1 1 1.767767,27.228739 A 4.3310289 6.0987959 0 1 1 10.429825 27.228739 z" transform="matrix(0.810984,-0.585069,0.585069,0.810984,-14.77791,6.947121)"/><path style="color:#000;fill:#2e3436;fill-opacity:1;fill-rule:evenodd;stroke:#000;stroke-width:1.17391276;stroke-linecap:butt;stroke-linejoin:miter;marker:none;marker-start:none;marker-mid:none;marker-end:none;stroke-miterlimit:10;stroke-dasharray:none;stroke-dashoffset:0;stroke-opacity:1;visibility:visible;display:inline;overflow:visible" id="path4359" d="M 24.041631 21.837049 A 2.2980971 2.2980971 0 1 1 19.445437,21.837049 A 2.2980971 2.2980971 0 1 1 24.041631 21.837049 z" transform="matrix(0.851852,0,0,0.851852,-3.926759,3.395528)"/><path style="opacity:.28089887;color:#000;fill:none;fill-opacity:1;fill-rule:evenodd;stroke:url(#linearGradient6458);stroke-width:1.00000012;stroke-linecap:butt;stroke-linejoin:miter;marker:none;marker-start:none;marker-mid:none;marker-end:none;stroke-miterlimit:10;stroke-dasharray:none;stroke-dashoffset:0;stroke-opacity:1;visibility:visible;display:inline;overflow:visible" id="path6450" d="M 6.09375,22.15625 C 5.2955008,22.15625 4.5406196,22.602421 3.90625,23.5 C 3.2718804,24.397579 2.8125,25.734204 2.8125,27.21875 C 2.8125,28.703296 3.2718804,30.039921 3.90625,30.9375 C 4.5406196,31.835079 5.2955011,32.28125 6.09375,32.28125 C 6.8919992,32.28125 7.6710339,31.804861 8.3125,30.90625 C 8.9539661,30.007639 9.40625,28.700064 9.40625,27.21875 C 9.40625,25.737436 8.9539662,24.429861 8.3125,23.53125 C 7.6710338,22.632639 6.8919989,22.15625 6.09375,22.15625 z" transform="matrix(0.800389,-0.599481,0.599481,0.800389,-15.2744,7.32784)"/><path style="color:#000;fill:#fff;fill-opacity:1;fill-rule:evenodd;stroke:none;stroke-width:.9999997;stroke-linecap:butt;stroke-linejoin:miter;marker:none;marker-start:none;marker-mid:none;marker-end:none;stroke-miterlimit:10;stroke-dasharray:none;stroke-dashoffset:0;stroke-opacity:1;visibility:visible;display:inline;overflow:visible" id="path6446" d="M 5.833631 23.251263 A 1.767767 2.1213202 0 1 1 2.2980971,23.251263 A 1.767767 2.1213202 0 1 1 5.833631 23.251263 z"/><path style="color:#000;fill:#fff;fill-opacity:1;fill-rule:evenodd;stroke:none;stroke-width:.9999997;stroke-linecap:butt;stroke-linejoin:miter;marker:none;marker-start:none;marker-mid:none;marker-end:none;stroke-miterlimit:10;stroke-dasharray:none;stroke-dashoffset:0;stroke-opacity:1;visibility:visible;display:inline;overflow:visible" id="path4361" d="M 23.157747 20.953165 A 1.767767 1.767767 0 1 1 19.622213,20.953165 A 1.767767 1.767767 0 1 1 23.157747 20.953165 z" transform="matrix(0.766666,0,0,0.766666,-2.556414,5.029841)"/><path style="color:#000;fill:url(#radialGradient6474);fill-opacity:1;fill-rule:evenodd;stroke:#888a85;stroke-width:.66666645;stroke-linecap:butt;stroke-linejoin:miter;marker:none;marker-start:none;marker-mid:none;marker-end:none;stroke-miterlimit:10;stroke-dasharray:none;stroke-dashoffset:0;stroke-opacity:1;visibility:visible;display:inline;overflow:visible" id="path6462" d="M 72.655224 21.837049 A 3.1819806 3.1819806 0 1 1 66.291263,21.837049 A 3.1819806 3.1819806 0 1 1 72.655224 21.837049 z" transform="matrix(1.5,0,0,1.5,-82.16821,-10.91852)"/><path style="color:#000;fill:#2e3436;fill-opacity:1;fill-rule:evenodd;stroke:#000;stroke-width:.9999997;stroke-linecap:butt;stroke-linejoin:miter;marker:none;marker-start:none;marker-mid:none;marker-end:none;stroke-miterlimit:10;stroke-dasharray:none;stroke-dashoffset:0;stroke-opacity:1;visibility:visible;display:inline;overflow:visible" id="path6464" d="M 24.041631 21.837049 A 2.2980971 2.2980971 0 1 1 19.445437,21.837049 A 2.2980971 2.2980971 0 1 1 24.041631 21.837049 z" transform="translate(1.414216,0.707108)"/><path style="color:#000;fill:#fff;fill-opacity:1;fill-rule:evenodd;stroke:none;stroke-width:.9999997;stroke-linecap:butt;stroke-linejoin:miter;marker:none;marker-start:none;marker-mid:none;marker-end:none;stroke-miterlimit:10;stroke-dasharray:none;stroke-dashoffset:0;stroke-opacity:1;visibility:visible;display:inline;overflow:visible" id="path6466" d="M 23.157747 20.953165 A 1.767767 1.767767 0 1 1 19.622213,20.953165 A 1.767767 1.767767 0 1 1 23.157747 20.953165 z" transform="matrix(0.9,0,0,0.9,3.022883,2.625648)"/><g id="g8463" transform="matrix(-0.114852,-0.389864,0.389864,-0.114852,24.71507,29.68942)"><path style="opacity:1;color:#000;fill:url(#linearGradient6957);fill-opacity:1;fill-rule:nonzero;stroke:#673907;stroke-width:2.46045303;stroke-linecap:round;stroke-linejoin:miter;marker:none;marker-start:none;marker-mid:none;marker-end:none;stroke-miterlimit:4;stroke-dasharray:none;stroke-dashoffset:0;stroke-opacity:1;visibility:visible;display:inline;overflow:visible" id="path6937" d="M -23.364209,23.568336 L -19.654111,27.037511 C -11.307128,20.656664 -2.5600338,6.9381374 -2.5600338,6.9381374 C -0.58371893,4.6957251 -2.6769537,3.1876548 -4.7249404,4.5402186 C -4.7249404,4.5402186 -17.695303,14.655085 -23.364209,23.568336 z"/><path style="opacity:1;color:#000;fill:url(#linearGradient6945);fill-opacity:1;fill-rule:nonzero;stroke:#888a85;stroke-width:2.46045303;stroke-linecap:round;stroke-linejoin:miter;marker:none;marker-start:none;marker-mid:none;marker-end:none;stroke-miterlimit:4;stroke-dasharray:none;stroke-dashoffset:0;stroke-opacity:1;visibility:visible;display:inline;overflow:visible" id="path6935" d="M -30.449715,32.813894 L -28.203395,34.747714 L -19.710629,27.380683 L -19.435568,26.674855 L -18.341163,26.65704 C -18.778663,25.09454 -21.282677,22.273585 -23.157677,22.273585 L -23.075658,23.36366 L -23.745649,23.743687 L -30.449715,32.813894 z"/><path style="opacity:1;color:#000;fill:none;fill-opacity:1;fill-rule:nonzero;stroke:#fff;stroke-width:2.46045327;stroke-linecap:round;stroke-linejoin:round;marker:none;marker-start:none;marker-mid:none;marker-end:none;stroke-miterlimit:4;stroke-dasharray:none;stroke-dashoffset:0;stroke-opacity:1;visibility:visible;display:inline;overflow:visible" id="path6985" d="M -23.801371,28.376767 L -28.166304,33.643238"/><path style="opacity:1;color:#000;fill:url(#radialGradient6969);fill-opacity:1;fill-rule:nonzero;stroke:none;stroke-width:.2;stroke-linecap:round;stroke-linejoin:miter;marker:none;marker-start:none;marker-mid:none;marker-end:none;stroke-miterlimit:4;stroke-dasharray:none;stroke-dashoffset:0;stroke-opacity:1;visibility:visible;display:inline;overflow:visible" id="path6933" d="M -45.341208,42.769835 C -34.89725,42.769835 -26.971169,44.013565 -25.470603,36.415097 C -24.261354,30.291783 -32.681137,27.357729 -36.853473,32.824236 C -40.87275,38.090207 -45.341208,42.769835 -45.341208,42.769835 z"/><path style="opacity:.52777782;color:#000;fill:#fff;fill-opacity:1;fill-rule:nonzero;stroke:none;stroke-width:1;stroke-linecap:round;stroke-linejoin:miter;marker:none;marker-start:none;marker-mid:none;marker-end:none;stroke-miterlimit:4;stroke-dasharray:none;stroke-dashoffset:0;stroke-opacity:1;visibility:visible;display:inline;overflow:visible" id="path6971" d="M 8.8749989 37.75 A 1.2499999 1.2499999 0 1 1 6.3749992,37.75 A 1.2499999 1.2499999 0 1 1 8.8749989 37.75 z" transform="matrix(2.069903,-2.005828e-15,-1.697698e-15,2.069903,-44.75012,-41.50978)"/><path style="opacity:1;color:#000;fill:#fff;fill-opacity:1;fill-rule:nonzero;stroke:none;stroke-width:1;stroke-linecap:round;stroke-linejoin:miter;marker:none;marker-start:none;marker-mid:none;marker-end:none;stroke-miterlimit:4;stroke-dasharray:none;stroke-dashoffset:0;stroke-opacity:1;visibility:visible;display:inline;overflow:visible" id="path6983" d="M 8.8749989 37.75 A 1.2499999 1.2499999 0 1 1 6.3749992,37.75 A 1.2499999 1.2499999 0 1 1 8.8749989 37.75 z" transform="matrix(1.396669,6.090506e-16,8.67172e-16,1.396669,-32.05526,-25.87664)"/><path style="opacity:.42777776;color:#000;fill:url(#linearGradient2452);fill-opacity:1;fill-rule:nonzero;stroke:none;stroke-width:1;stroke-linecap:round;stroke-linejoin:miter;marker:none;marker-start:none;marker-mid:none;marker-end:none;stroke-miterlimit:4;stroke-dasharray:none;stroke-dashoffset:0;stroke-opacity:1;visibility:visible;display:inline;overflow:visible" id="path1571" d="M -38.543723,40.909242 C -38.543723,40.909242 -34.822203,41.003542 -32.427185,39.497247 C -31.579834,38.964324 -30.911411,40.147232 -31.933366,40.584614 C -34.14076,41.529346 -38.543723,40.909242 -38.543723,40.909242 z"/></g><path style="color:#000;fill:url(#linearGradient4330);fill-opacity:1;fill-rule:evenodd;stroke:none;stroke-width:.9999997;stroke-linecap:butt;stroke-linejoin:miter;marker:none;marker-start:none;marker-mid:none;marker-end:none;stroke-miterlimit:10;stroke-dasharray:none;stroke-dashoffset:0;stroke-opacity:1;visibility:visible;display:inline;overflow:visible" id="path8532" d="M 23.003067,31.736544 C 24.500439,31.879636 25.852696,31.464331 26.41496,31.262497 C 26.513185,30.707111 26.951512,29.64124 28.461048,29.571029 L 27.930718,28.642952 C 27.930718,28.642952 25.964077,29.990873 23.864854,30.388621 L 23.003067,31.736544 z"/></g></svg>