<svg xmlns="http://www.w3.org/2000/svg" xmlns:svg="http://www.w3.org/2000/svg" xmlns:xlink="http://www.w3.org/1999/xlink" id="svg2" width="256" height="256" version="1.1"><defs id="defs4"><linearGradient id="linearGradient3904"><stop id="stop3906" offset="0" style="stop-color:#fff;stop-opacity:1"/><stop id="stop3908" offset="1" style="stop-color:#b8caff;stop-opacity:1"/></linearGradient><linearGradient id="linearGradient3870"><stop id="stop3872" offset="0" style="stop-color:#fff;stop-opacity:1"/><stop id="stop3874" offset="1" style="stop-color:#2a53c6;stop-opacity:1"/></linearGradient><linearGradient id="linearGradient3876" x1="371.429" x2="500.714" y1="580.934" y2="710.219" gradientUnits="userSpaceOnUse" xlink:href="#linearGradient3870"/><linearGradient id="linearGradient3910" x1="279.991" x2="548.581" y1="526.638" y2="795.229" gradientUnits="userSpaceOnUse" xlink:href="#linearGradient3904"/></defs><metadata id="metadata7"/><g id="layer1" transform="translate(-140.28573,-560.07648)"><path id="path3025" d="m 542.28574,660.93359 a 128,128 0 1 1 -256,0 128,128 0 1 1 256,0 z" transform="matrix(0.95312501,0,0,0.95312502,-126.58036,58.124135)" style="fill:url(#linearGradient3910);fill-opacity:1;stroke:#000;stroke-width:12.59016418;stroke-miterlimit:4;stroke-opacity:1;stroke-dasharray:none"/><path id="path3795" d="m 500.7143,645.57648 a 64.64286,64.64286 0 1 1 -129.28572,0 64.64286,64.64286 0 1 1 129.28572,0 z" transform="matrix(1.5701657,0,0,1.5701657,-416.41868,-325.58556)" style="fill:url(#linearGradient3876);fill-opacity:1;stroke:none"/><g id="g3853" transform="translate(-145.99777,29.127545)"><rect id="rect3801" width="125" height="16" x="351.786" y="709.148" style="fill:#000;fill-opacity:1;stroke:none"/><path id="rect3803" d="m 351.78125,689.15625 0,16 53,0 0,-16 -53,0 z m 72,0 0,16 53,0 0,-16 -53,0 z" style="fill:#000;fill-opacity:1;stroke:none"/><path id="rect3807" d="m 351.78125,669.15625 0,16 53,0 0,-16 -53,0 z m 72,0 0,16 53,0 0,-16 -53,0 z" style="fill:#000;fill-opacity:1;stroke:none"/><rect id="rect3809" width="125" height="16" x="351.786" y="649.148" style="fill:#000;fill-opacity:1;stroke:none"/><path id="path3832" d="m 414.28125,572.75 c -11.70527,0 -21.61153,5.4901 -28.6875,12.6875 -7.07597,7.1974 -11.87157,16.05803 -15.4375,24.625 -7.13185,17.13393 -9.28125,33.84375 -9.28125,33.84375 l -0.15625,1.25 19.15625,0 c 0.46666,-2.98621 2.59068,-15.26733 7.8125,-27.8125 2.97796,-7.1544 6.95263,-14.00013 11.46875,-18.59375 4.51612,-4.59362 9.00579,-7 15.125,-7 6.11921,0 10.64013,2.40638 15.15625,7 4.51612,4.59362 8.45954,11.43935 11.4375,18.59375 5.22182,12.54517 7.34584,24.82629 7.8125,27.8125 l 19.15625,0 -0.15625,-1.25 c 0,0 -2.11815,-16.70982 -9.25,-33.84375 -3.56593,-8.56697 -8.39278,-17.4276 -15.46875,-24.625 -7.07597,-7.1974 -16.98223,-12.6875 -28.6875,-12.6875 z" style="font-size:medium;font-style:normal;font-variant:normal;font-weight:400;font-stretch:normal;text-indent:0;text-align:start;text-decoration:none;line-height:normal;letter-spacing:normal;word-spacing:normal;text-transform:none;direction:ltr;block-progression:tb;writing-mode:lr-tb;text-anchor:start;baseline-shift:baseline;color:#000;fill:#000;fill-opacity:1;stroke:none;stroke-width:19;marker:none;visibility:visible;display:inline;overflow:visible;enable-background:accumulate;font-family:Sans;-inkscape-font-specification:Sans"/></g></g></svg>